<svg width="214" height="53" viewBox="0 0 214 53" fill="none" xmlns="http://www.w3.org/2000/svg">
<circle cx="26.5" cy="26.5" r="26.5" fill="#1E1E1E"/>
<path d="M12.924 24V23.682H13.176C13.236 23.682 13.288 23.674 13.332 23.658C13.38 23.638 13.416 23.6 13.44 23.544C13.468 23.488 13.482 23.404 13.482 23.292V20.082H13.002C12.882 20.082 12.788 20.1 12.72 20.136C12.652 20.168 12.602 20.216 12.57 20.28C12.538 20.344 12.516 20.42 12.504 20.508L12.462 20.88H12.06L12.09 19.716H15.828L15.858 20.88H15.456L15.414 20.508C15.406 20.42 15.384 20.344 15.348 20.28C15.316 20.216 15.266 20.168 15.198 20.136C15.13 20.1 15.036 20.082 14.916 20.082H14.436V23.292C14.436 23.404 14.448 23.488 14.472 23.544C14.5 23.6 14.538 23.638 14.586 23.658C14.634 23.674 14.686 23.682 14.742 23.682H14.994V24H12.924ZM16.2679 24V23.682H16.5199C16.5759 23.682 16.6259 23.674 16.6699 23.658C16.7179 23.642 16.7559 23.608 16.7839 23.556C16.8119 23.504 16.8259 23.426 16.8259 23.322V20.424C16.8259 20.308 16.8119 20.224 16.7839 20.172C16.7599 20.116 16.7239 20.08 16.6759 20.064C16.6319 20.044 16.5799 20.034 16.5199 20.034H16.2679V19.716H19.5979L19.6219 20.82H19.2019L19.1719 20.538C19.1639 20.438 19.1439 20.356 19.1119 20.292C19.0839 20.224 19.0439 20.172 18.9919 20.136C18.9399 20.1 18.8719 20.082 18.7879 20.082H17.7799V21.582H19.2019V21.942H17.7799V23.634H18.9799C19.0599 23.634 19.1259 23.614 19.1779 23.574C19.2299 23.534 19.2699 23.48 19.2979 23.412C19.3299 23.344 19.3519 23.266 19.3639 23.178L19.4119 22.896H19.8259L19.7839 24H16.2679ZM20.3678 24V23.682H20.6198C20.6758 23.682 20.7258 23.674 20.7698 23.658C20.8178 23.642 20.8558 23.608 20.8838 23.556C20.9118 23.504 20.9258 23.426 20.9258 23.322V20.4C20.9258 20.292 20.9118 20.212 20.8838 20.16C20.8558 20.108 20.8178 20.074 20.7698 20.058C20.7258 20.042 20.6758 20.034 20.6198 20.034H20.3678V19.716H22.2998C22.6798 19.716 22.9898 19.758 23.2298 19.842C23.4738 19.926 23.6538 20.052 23.7698 20.22C23.8858 20.384 23.9438 20.586 23.9438 20.826C23.9438 21.038 23.9038 21.218 23.8238 21.366C23.7438 21.514 23.6418 21.636 23.5178 21.732C23.3938 21.828 23.2638 21.904 23.1278 21.96L23.8418 23.19C23.8938 23.278 23.9438 23.354 23.9918 23.418C24.0398 23.478 24.0858 23.528 24.1298 23.568C24.1778 23.608 24.2278 23.638 24.2798 23.658C24.3318 23.674 24.3858 23.682 24.4418 23.682H24.4658V24H24.2678C24.0878 24 23.9298 23.994 23.7938 23.982C23.6618 23.966 23.5458 23.94 23.4458 23.904C23.3498 23.864 23.2638 23.808 23.1878 23.736C23.1118 23.664 23.0438 23.572 22.9838 23.46L22.2698 22.14H21.8738V23.322C21.8738 23.426 21.8878 23.504 21.9158 23.556C21.9438 23.608 21.9818 23.642 22.0298 23.658C22.0778 23.674 22.1278 23.682 22.1798 23.682H22.4378V24H20.3678ZM22.2098 21.792C22.3938 21.792 22.5378 21.76 22.6418 21.696C22.7498 21.628 22.8258 21.53 22.8698 21.402C22.9138 21.27 22.9358 21.106 22.9358 20.91C22.9358 20.706 22.9118 20.544 22.8638 20.424C22.8158 20.3 22.7378 20.21 22.6298 20.154C22.5218 20.098 22.3778 20.07 22.1978 20.07H21.8738V21.792H22.2098ZM24.79 24V23.682H25.042C25.098 23.682 25.148 23.674 25.192 23.658C25.24 23.642 25.278 23.608 25.306 23.556C25.334 23.504 25.348 23.426 25.348 23.322V20.4C25.348 20.292 25.334 20.212 25.306 20.16C25.278 20.108 25.24 20.074 25.192 20.058C25.148 20.042 25.098 20.034 25.042 20.034H24.79V19.716H26.518L27.514 22.614L28.468 19.716H30.166V20.034H29.914C29.858 20.034 29.806 20.044 29.758 20.064C29.71 20.08 29.672 20.116 29.644 20.172C29.62 20.224 29.608 20.308 29.608 20.424V23.292C29.608 23.404 29.62 23.488 29.644 23.544C29.672 23.6 29.71 23.638 29.758 23.658C29.806 23.674 29.858 23.682 29.914 23.682H30.166V24H28.246V23.682H28.306C28.39 23.682 28.46 23.674 28.516 23.658C28.572 23.642 28.614 23.61 28.642 23.562C28.67 23.514 28.684 23.442 28.684 23.346V20.31L27.472 24H27.064L25.798 20.31V23.292C25.798 23.404 25.814 23.488 25.846 23.544C25.882 23.6 25.934 23.638 26.002 23.658C26.07 23.674 26.15 23.682 26.242 23.682H26.278V24H24.79ZM33.0035 24L34.5995 20.37H33.2615C33.1535 20.37 33.0715 20.396 33.0155 20.448C32.9595 20.5 32.9255 20.576 32.9135 20.676L32.8775 20.976H32.5175L32.5475 19.716H35.4095V20.01L33.7535 24H33.0035ZM12.168 32V31.682H12.42C12.476 31.682 12.526 31.674 12.57 31.658C12.618 31.642 12.656 31.608 12.684 31.556C12.712 31.504 12.726 31.426 12.726 31.322V28.424C12.726 28.308 12.712 28.224 12.684 28.172C12.66 28.116 12.624 28.08 12.576 28.064C12.532 28.044 12.48 28.034 12.42 28.034H12.168V27.716H15.498L15.522 28.82H15.102L15.072 28.538C15.064 28.438 15.044 28.356 15.012 28.292C14.984 28.224 14.944 28.172 14.892 28.136C14.84 28.1 14.772 28.082 14.688 28.082H13.68V29.582H15.102V29.942H13.68V31.634H14.88C14.96 31.634 15.026 31.614 15.078 31.574C15.13 31.534 15.17 31.48 15.198 31.412C15.23 31.344 15.252 31.266 15.264 31.178L15.312 30.896H15.726L15.684 32H12.168ZM16.2679 32V31.682H16.5199C16.5799 31.682 16.6319 31.674 16.6759 31.658C16.7239 31.638 16.7599 31.6 16.7839 31.544C16.8119 31.488 16.8259 31.404 16.8259 31.292V28.424C16.8259 28.308 16.8119 28.224 16.7839 28.172C16.7599 28.116 16.7239 28.08 16.6759 28.064C16.6319 28.044 16.5799 28.034 16.5199 28.034H16.2679V27.716H18.3379V28.034H18.0859C18.0299 28.034 17.9779 28.042 17.9299 28.058C17.8859 28.074 17.8499 28.108 17.8219 28.16C17.7939 28.212 17.7799 28.292 17.7799 28.4V31.634H18.8959C18.9879 31.634 19.0659 31.614 19.1299 31.574C19.1979 31.534 19.2519 31.476 19.2919 31.4C19.3359 31.32 19.3699 31.224 19.3939 31.112L19.4899 30.662H19.8259L19.7839 32H16.2679ZM20.3737 32V31.682H20.6257C20.6817 31.682 20.7317 31.674 20.7757 31.658C20.8237 31.642 20.8617 31.608 20.8897 31.556C20.9177 31.504 20.9317 31.426 20.9317 31.322V28.424C20.9317 28.308 20.9177 28.224 20.8897 28.172C20.8657 28.116 20.8297 28.08 20.7817 28.064C20.7377 28.044 20.6857 28.034 20.6257 28.034H20.3737V27.716H23.7037L23.7277 28.82H23.3077L23.2777 28.538C23.2697 28.438 23.2497 28.356 23.2177 28.292C23.1897 28.224 23.1497 28.172 23.0977 28.136C23.0457 28.1 22.9777 28.082 22.8937 28.082H21.8857V29.582H23.3077V29.942H21.8857V31.634H23.0857C23.1657 31.634 23.2317 31.614 23.2837 31.574C23.3357 31.534 23.3757 31.48 23.4037 31.412C23.4357 31.344 23.4577 31.266 23.4697 31.178L23.5177 30.896H23.9317L23.8897 32H20.3737ZM24.6984 28.322C24.6744 28.246 24.6404 28.188 24.5964 28.148C24.5524 28.104 24.5064 28.074 24.4584 28.058C24.4104 28.042 24.3664 28.034 24.3264 28.034H24.1884V27.716H26.1684V28.034H25.8924C25.8364 28.034 25.7824 28.048 25.7304 28.076C25.6824 28.104 25.6584 28.156 25.6584 28.232C25.6584 28.256 25.6604 28.284 25.6644 28.316C25.6724 28.348 25.6804 28.38 25.6884 28.412C25.6964 28.44 25.7044 28.466 25.7124 28.49L26.3244 30.338C26.3404 30.382 26.3564 30.436 26.3724 30.5C26.3924 30.56 26.4104 30.626 26.4264 30.698C26.4424 30.766 26.4564 30.834 26.4684 30.902C26.4844 30.966 26.4944 31.026 26.4984 31.082C26.5104 31.014 26.5264 30.938 26.5464 30.854C26.5664 30.77 26.5884 30.684 26.6124 30.596C26.6404 30.508 26.6664 30.428 26.6904 30.356L27.3084 28.532C27.3204 28.504 27.3304 28.472 27.3384 28.436C27.3504 28.396 27.3604 28.358 27.3684 28.322C27.3764 28.286 27.3804 28.258 27.3804 28.238C27.3804 28.17 27.3584 28.12 27.3144 28.088C27.2704 28.052 27.2124 28.034 27.1404 28.034H26.8284V27.716H28.3764V28.034H28.0884C28.0524 28.034 28.0204 28.046 27.9924 28.07C27.9644 28.09 27.9364 28.132 27.9084 28.196C27.8804 28.256 27.8444 28.348 27.8004 28.472L26.5764 32H25.9764L24.6984 28.322ZM28.7259 32V31.682H28.9779C29.0339 31.682 29.0839 31.674 29.1279 31.658C29.1759 31.642 29.2139 31.608 29.2419 31.556C29.2699 31.504 29.2839 31.426 29.2839 31.322V28.424C29.2839 28.308 29.2699 28.224 29.2419 28.172C29.2179 28.116 29.1819 28.08 29.1339 28.064C29.0899 28.044 29.0379 28.034 28.9779 28.034H28.7259V27.716H32.0559L32.0799 28.82H31.6599L31.6299 28.538C31.6219 28.438 31.6019 28.356 31.5699 28.292C31.5419 28.224 31.5019 28.172 31.4499 28.136C31.3979 28.1 31.3299 28.082 31.2459 28.082H30.2379V29.582H31.6599V29.942H30.2379V31.634H31.4379C31.5179 31.634 31.5839 31.614 31.6359 31.574C31.6879 31.534 31.7279 31.48 31.7559 31.412C31.7879 31.344 31.8099 31.266 31.8219 31.178L31.8699 30.896H32.2839L32.2419 32H28.7259ZM32.8258 32V31.682H33.0778C33.1338 31.682 33.1838 31.674 33.2278 31.658C33.2758 31.638 33.3138 31.6 33.3418 31.544C33.3698 31.488 33.3838 31.404 33.3838 31.292V28.4C33.3838 28.292 33.3698 28.212 33.3418 28.16C33.3138 28.108 33.2758 28.074 33.2278 28.058C33.1838 28.042 33.1338 28.034 33.0778 28.034H32.8258V27.716H34.1578L36.2758 30.71V28.4C36.2758 28.292 36.2618 28.212 36.2338 28.16C36.2058 28.108 36.1678 28.074 36.1198 28.058C36.0758 28.042 36.0258 28.034 35.9698 28.034H35.7178V27.716H37.2838V28.034H37.0318C36.9758 28.034 36.9238 28.044 36.8758 28.064C36.8318 28.08 36.7958 28.116 36.7678 28.172C36.7398 28.224 36.7258 28.308 36.7258 28.424V32H36.1738L33.8338 28.694V31.292C33.8338 31.404 33.8478 31.488 33.8758 31.544C33.9038 31.6 33.9398 31.638 33.9838 31.658C34.0318 31.674 34.0838 31.682 34.1398 31.682H34.3918V32H32.8258Z" fill="white"/>
<path d="M22.5017 17.0379H22V14H40V38H22V34.9621H22.4526V37.5888H39.561V14.5H22.5017V17.0379Z" fill="#68E24E"/>
<path d="M68 32H64.4V20.8H60.2V18H72.2V20.8H68V32ZM84.7023 32H73.6023V18H84.7023V20.8H77.2023V23.5H83.1023V26.3H77.2023V29.2H84.7023V32ZM86.2977 18H94.6977C96.0977 18 97.111 18.32 97.7377 18.96C98.3777 19.5867 98.6977 20.6 98.6977 22V23.8C98.6977 24.9067 98.511 25.7667 98.1377 26.38C97.7777 26.9933 97.1977 27.4 96.3977 27.6L98.8977 32H94.9977L92.6977 27.8H89.8977V32H86.2977V18ZM95.0977 22C95.0977 21.2 94.6977 20.8 93.8977 20.8H89.8977V25H93.8977C94.6977 25 95.0977 24.6 95.0977 23.8V22ZM112.692 24.2L109.892 29.2H107.092L104.292 24.2V32H100.692V18H104.492L108.492 25.4L112.492 18H116.292V32H112.692V24.2ZM123.696 18H134.496V20.8L129.896 32H125.896L130.696 20.8H123.696V18ZM146.988 32H135.888V18H146.988V20.8H139.488V23.5H145.388V26.3H139.488V29.2H146.988V32ZM152.183 29.2H159.483V32H148.583V18H152.183V29.2ZM171.988 32H160.888V18H171.988V20.8H164.488V23.5H170.388V26.3H164.488V29.2H171.988V32ZM179.483 27.8L182.883 18H186.783L181.483 32H177.483L172.183 18H176.083L179.483 27.8ZM198.882 32H187.782V18H198.882V20.8H191.382V23.5H197.282V26.3H191.382V29.2H198.882V32ZM212.677 32H208.877L204.077 23.6V32H200.477V18H204.277L209.077 26.4V18H212.677V32Z" fill="url(#paint0_linear_345_3502)"/>
<defs>
<linearGradient id="paint0_linear_345_3502" x1="137" y1="4.5" x2="137" y2="32.5" gradientUnits="userSpaceOnUse">
<stop offset="0.229167" stop-color="white"/>
<stop offset="1" stop-color="#00FFA3"/>
</linearGradient>
</defs>
</svg>
